<svg width="67" height="66" viewBox="0 0 67 66" fill="none" xmlns="http://www.w3.org/2000/svg">
<g clip-path="url(#clip0_0_560)">
<path d="M40.828 49.0746H11.0706V35.0625C11.0706 30.0996 15.1534 26.0777 20.1915 26.0777H40.828V49.0746Z" fill="#CEE8FA"/>
<path d="M40.828 50.9437H11.0706C10.0237 50.9437 9.1731 50.1058 9.1731 49.0746V35.0625C9.1731 29.0812 14.1196 24.2086 20.1915 24.2086H40.828C41.8749 24.2086 42.7254 25.0464 42.7254 26.0777V49.0746C42.7254 50.1058 41.8749 50.9437 40.828 50.9437ZM12.968 47.2054H38.9174V27.9597H20.1784C16.2002 27.9597 12.968 31.1437 12.968 35.0625V47.2054Z" fill="#2D527C"/>
<path d="M60.4439 34.2633H6.55605C2.94434 34.2633 0 31.3629 0 27.7922V21.9785C0 18.4207 2.94434 15.5203 6.55605 15.5203H20.1262C21.173 15.5203 22.0236 16.3582 22.0236 17.3895C22.0236 18.4207 21.173 19.2586 20.1262 19.2586H6.55605C5.03809 19.2586 3.79492 20.4832 3.79492 21.9785V27.7922C3.79492 29.2875 5.03809 30.5121 6.55605 30.5121H60.4309C61.9488 30.5121 63.192 29.2875 63.192 27.7922V21.9785C63.192 20.4832 61.9488 19.2586 60.4309 19.2586H33.5C32.4531 19.2586 31.6025 18.4207 31.6025 17.3895C31.6025 16.3582 32.4531 15.5203 33.5 15.5203H60.4439C64.0557 15.5203 67 18.4207 67 21.9785V27.7922C67 31.3629 64.0557 34.2633 60.4439 34.2633Z" fill="#F0BF5F"/>
<path d="M33.4999 19.1555C32.911 19.1555 32.3483 18.8977 31.9688 18.3949C31.3407 17.557 31.5239 16.384 32.3614 15.7781C34.1541 14.4633 37.8706 11.0086 37.8706 8.70117C37.8706 6.20039 36.0254 4.3957 33.4999 4.3957C31.092 4.3957 29.1291 6.3293 29.1291 8.70117C29.1291 9.73242 28.2786 10.5703 27.2317 10.5703C26.1848 10.5703 25.3342 9.73242 25.3342 8.70117V8.53359C25.3342 8.48203 25.3342 8.43047 25.3473 8.37891C25.5043 4.07344 29.103 0.644531 33.4999 0.644531C38.1584 0.644531 41.6786 4.11211 41.6786 8.70117C41.6786 13.5223 35.3581 18.266 34.6252 18.7945C34.285 19.0395 33.8924 19.1555 33.4999 19.1555Z" fill="#F0BF5F"/>
<path d="M47.5412 61.2562H22.377C21.3301 61.2562 20.4795 60.4183 20.4795 59.3871V49.0875C20.4795 48.0562 21.3301 47.2183 22.377 47.2183H55.9424C56.9893 47.2183 57.8398 48.0562 57.8398 49.0875C57.8398 50.1187 56.9893 50.9566 55.9424 50.9566H24.2744V57.5179H47.5412C48.5881 57.5179 49.4387 58.3558 49.4387 59.3871C49.4387 60.4183 48.5881 61.2562 47.5412 61.2562Z" fill="#2D527C"/>
<path d="M55.9293 49.0746V33.5671C55.9293 29.4293 52.5269 26.0777 48.3264 26.0777H22.377V49.0746H55.9293Z" fill="#CEE8FA"/>
<path d="M55.9293 50.9437H22.377C21.3301 50.9437 20.4795 50.1058 20.4795 49.0746V26.0906C20.4795 25.0593 21.3301 24.2214 22.377 24.2214H48.3395C53.5738 24.2214 57.8398 28.4238 57.8398 33.58V49.0875C57.8398 50.1058 56.9762 50.9437 55.9293 50.9437ZM24.2744 47.2054H54.0318V33.5671C54.0318 30.4734 51.4801 27.9597 48.3395 27.9597H24.2744V47.2054Z" fill="#2D527C"/>
<path d="M22.377 65.3554C21.3301 65.3554 20.4795 64.5175 20.4795 63.4862V59.387C20.4795 58.3558 21.3301 57.5179 22.377 57.5179C23.4238 57.5179 24.2744 58.3558 24.2744 59.387V63.4862C24.2744 64.5175 23.4238 65.3554 22.377 65.3554Z" fill="#2D527C"/>
<path d="M55.9294 65.3554C54.8826 65.3554 54.032 64.5175 54.032 63.4863V47.8757C54.032 46.8445 54.8826 46.0066 55.9294 46.0066C56.9763 46.0066 57.8269 46.8445 57.8269 47.8757V63.4863C57.84 64.5175 56.9763 65.3554 55.9294 65.3554Z" fill="#2D527C"/>
<path d="M47.5413 65.3554C46.4944 65.3554 45.6438 64.5175 45.6438 63.4862V59.387C45.6438 58.3558 46.4944 57.5179 47.5413 57.5179C48.5881 57.5179 49.4387 58.3558 49.4387 59.387V63.4862C49.4387 64.5175 48.5881 65.3554 47.5413 65.3554Z" fill="#2D527C"/>
<path d="M39.1531 65.3554C38.1062 65.3554 37.2556 64.5175 37.2556 63.4862V59.387C37.2556 58.3558 38.1062 57.5179 39.1531 57.5179C40.2 57.5179 41.0505 58.3558 41.0505 59.387V63.4862C41.0505 64.5175 40.2 65.3554 39.1531 65.3554Z" fill="#2D527C"/>
<path d="M30.7649 65.3554C29.718 65.3554 28.8674 64.5175 28.8674 63.4862V59.387C28.8674 58.3558 29.718 57.5179 30.7649 57.5179C31.8118 57.5179 32.6624 58.3558 32.6624 59.387V63.4862C32.6624 64.5175 31.8118 65.3554 30.7649 65.3554Z" fill="#2D527C"/>
</g>
<defs>
<clipPath id="clip0_0_560">
<rect width="67" height="66" fill="white"/>
</clipPath>
</defs>
</svg>
