<svg width="64" height="66" viewBox="0 0 64 66" fill="none" xmlns="http://www.w3.org/2000/svg">
<path d="M54.0249 49.7191H9.9749C8.9624 49.7191 8.1499 48.8812 8.1499 47.8371V45.8519C8.1499 32.291 18.8499 21.2566 31.9999 21.2566C34.4874 21.2566 36.9374 21.6562 39.2874 22.4296C40.2499 22.7519 40.7749 23.8089 40.4749 24.8015C40.1624 25.7941 39.1374 26.3355 38.1749 26.0261C36.1874 25.3687 34.1124 25.0335 31.9999 25.0335C20.8624 25.0335 11.7999 34.3793 11.7999 45.8648V45.9679H52.1999V45.8648C52.1999 40.2703 50.0749 35.0109 46.2249 31.0664C45.5124 30.3316 45.4999 29.1457 46.2124 28.398C46.9249 27.6632 48.0749 27.6503 48.7999 28.3851C53.3499 33.0386 55.8624 39.239 55.8624 45.8519V47.8371C55.8499 48.8812 55.0374 49.7191 54.0249 49.7191Z" fill="#F0BF5F"/>
<path d="M31.9998 24.5824C30.9873 24.5824 30.1748 23.7445 30.1748 22.7004V17.3637C30.1748 16.3195 30.9873 15.4816 31.9998 15.4816C33.0123 15.4816 33.8248 16.3195 33.8248 17.3637V22.7004C33.8248 23.7445 33.0123 24.5824 31.9998 24.5824Z" fill="#F0BF5F"/>
<path d="M36.4749 18.8074H27.5249C26.5124 18.8074 25.7 17.9695 25.7 16.9254C25.7 15.8812 26.5124 15.0433 27.5249 15.0433H36.4749C37.4874 15.0433 38.2999 15.8812 38.2999 16.9254C38.2999 17.9695 37.4874 18.8074 36.4749 18.8074Z" fill="#F0BF5F"/>
<path d="M47.9875 47.8371H16V55.7649H47.9875V47.8371Z" fill="#CEE8FA"/>
<path d="M48.0001 57.6469H16C14.9875 57.6469 14.175 56.809 14.175 55.7648V47.8371C14.175 46.793 14.9875 45.9551 16 45.9551H48.0001C49.0126 45.9551 49.8251 46.793 49.8251 47.8371V55.7648C49.8251 56.809 49.0001 57.6469 48.0001 57.6469ZM17.8375 53.8828H46.1751V49.7191H17.8375V53.8828Z" fill="#F0BF5F"/>
<path d="M54.2376 61.8105H9.7626C7.6376 61.8105 5.9126 60.0316 5.9126 57.8402C5.9126 55.6488 7.6376 53.8699 9.7626 53.8699H54.2376C56.3626 53.8699 58.0876 55.6488 58.0876 57.8402C58.0751 60.0316 56.3626 61.8105 54.2376 61.8105Z" fill="#CEE8FA"/>
<path d="M54.2374 63.6926H9.7624C6.6374 63.6926 4.0874 61.0758 4.0874 57.8403C4.0874 54.6047 6.6249 51.9879 9.7624 51.9879H54.2374C57.3624 51.9879 59.9124 54.6176 59.9124 57.8403C59.8999 61.0758 57.3624 63.6926 54.2374 63.6926ZM9.7624 55.7649C8.6499 55.7649 7.7499 56.693 7.7499 57.8403C7.7499 58.9875 8.6499 59.9156 9.7624 59.9156H54.2374C55.3499 59.9156 56.2499 58.9875 56.2499 57.8403C56.2499 56.693 55.3499 55.7649 54.2374 55.7649H9.7624Z" fill="#2D527C"/>
<path d="M32.0001 9.73243C30.9876 9.73243 30.175 8.89454 30.175 7.8504V4.18947C30.175 3.14532 30.9876 2.30743 32.0001 2.30743C33.0126 2.30743 33.8251 3.14532 33.8251 4.18947V7.8504C33.8251 8.89454 33.0126 9.73243 32.0001 9.73243Z" fill="#2D527C"/>
<path d="M62.175 35.3074H58.625C57.6125 35.3074 56.8 34.4695 56.8 33.4254C56.8 32.3813 57.6125 31.5434 58.625 31.5434H62.175C63.1875 31.5434 64 32.3813 64 33.4254C64 34.4695 63.1875 35.3074 62.175 35.3074Z" fill="#2D527C"/>
<path d="M5.375 35.3074H1.825C0.8125 35.3074 0 34.4695 0 33.4254C0 32.3813 0.8125 31.5434 1.825 31.5434H5.375C6.3875 31.5434 7.2 32.3813 7.2 33.4254C7.2 34.4695 6.3875 35.3074 5.375 35.3074Z" fill="#2D527C"/>
<path d="M49.5375 17.2219C49.075 17.2219 48.6 17.0414 48.25 16.6676C47.5375 15.9328 47.5375 14.734 48.25 13.9992L50.75 11.4211C51.4625 10.6863 52.625 10.6863 53.3375 11.4211C54.05 12.1559 54.05 13.3547 53.3375 14.0895L50.825 16.6805C50.475 17.0414 50 17.2219 49.5375 17.2219Z" fill="#2D527C"/>
<path d="M14.4625 17.2219C14 17.2219 13.525 17.0414 13.175 16.6676L10.6625 14.0766C9.95005 13.3418 9.95005 12.143 10.6625 11.4082C11.375 10.6735 12.5375 10.6735 13.25 11.4082L15.7625 13.9992C16.475 14.734 16.475 15.9328 15.7625 16.6676C15.4 17.0414 14.9375 17.2219 14.4625 17.2219Z" fill="#2D527C"/>
</svg>
