<svg width="14" height="14" viewBox="0 0 14 14" fill="none" xmlns="http://www.w3.org/2000/svg">
<path d="M13.6961 6.37208C13.9717 6.10352 14.0689 5.70937 13.9501 5.34297C13.8309 4.97657 13.5206 4.71501 13.1393 4.65951L9.74952 4.16696C9.60514 4.14593 9.4804 4.05538 9.41592 3.92447L7.90042 0.8531C7.73025 0.508006 7.38488 0.293549 6.99998 0.293549C6.61536 0.293549 6.26998 0.508006 6.09982 0.8531L4.58404 3.92475C4.51956 4.05566 4.39453 4.14621 4.25016 4.16724L0.86033 4.65979C0.479353 4.71501 0.168741 4.97685 0.0495976 5.34325C-0.0692651 5.70965 0.0280117 6.1038 0.303582 6.37236L2.75625 8.76307C2.86081 8.86511 2.90875 9.01201 2.88408 9.15554L2.30546 12.5314C2.25416 12.8285 2.3321 13.1175 2.52441 13.3455C2.82325 13.7006 3.34495 13.8088 3.76209 13.5896L6.79365 11.9956C6.92036 11.9292 7.07987 11.9298 7.20631 11.9956L10.2381 13.5896C10.3856 13.6673 10.5429 13.7065 10.7052 13.7065C11.0015 13.7065 11.2824 13.5748 11.4755 13.3455C11.6681 13.1175 11.7458 12.8279 11.6945 12.5314L11.1156 9.15554C11.0909 9.01173 11.1389 8.86511 11.2434 8.76307L13.6961 6.37208Z" fill="#E9E9E9"/>
</svg>
